<?xml version="1.0" encoding="UTF-8" standalone="no"?>
<svg
   xmlns:dc="http://purl.org/dc/elements/1.1/"
   xmlns:cc="http://creativecommons.org/ns#"
   xmlns:rdf="http://www.w3.org/1999/02/22-rdf-syntax-ns#"
   xmlns:svg="http://www.w3.org/2000/svg"
   xmlns="http://www.w3.org/2000/svg"
   width="301.03333"
   height="56.033333"
   viewBox="0 0 79.648397 14.825487"
   version="1.1"
   id="svg8">
  <path
     id="circle10066"
     style="fill:#512d6d;stroke-width:0.264583"
     d="M 50.570697,0.66145676 A 0.5291667,0.5291667 0 0 1 50.041531,1.1906235 0.5291667,0.5291667 0 0 1 49.512364,0.66145676 0.5291667,0.5291667 0 0 1 50.041531,0.13229007 0.5291667,0.5291667 0 0 1 50.570697,0.66145676 Z M 28.134028,1.6933318 c -1.666875,0 -2.751666,0.9260417 -2.751666,2.3283334 0,1.190625 0.529166,2.619375 3.042708,2.619375 0.79375,0 1.455208,-0.15875 2.090208,-0.47625 l 0.105834,-0.052917 -0.132292,-0.79375 -0.185208,0.1058334 c -0.608542,0.2645833 -1.190625,0.396875 -1.825625,0.396875 -1.27,0 -1.984375,-0.4233334 -2.116667,-1.2700001 h 4.365625 l 0.05292,-0.2645833 c 0.02646,-0.079375 0.02646,-0.2116667 0.02646,-0.2910417 0,-1.3758333 -1.084792,-2.301875 -2.672292,-2.301875 z m -1.799166,1.9579167 c 0.132291,-0.714375 0.767291,-1.11125 1.799166,-1.11125 0.978959,0 1.640417,0.4233333 1.74625,1.11125 z M 59.301946,1.4552068 h 4.365625 l -0.02646,-0.95250006 h -5.318126 l -0.02646,6.05895846 h 1.005417 V 3.9687485 h 3.65125 l -0.02646,-0.9260417 h -3.624792 z m 20.055417,3.8364584 -0.185208,0.079375 c -0.582084,0.2645833 -1.217084,0.396875 -1.825625,0.396875 -1.905,0 -2.725209,-0.6614583 -2.725209,-2.2489584 0,-1.508125 0.820209,-2.1960417 2.672292,-2.1960417 0.635,0 1.349375,0.1322917 1.878542,0.3175 l 0.185208,0.079375 0.132292,-0.89958336 -0.105834,-0.0529167 C 78.93403,0.58208174 78.087363,0.3968734 77.293613,0.3968734 c -3.069167,0 -3.704167,1.6933334 -3.704167,3.0956251 0,2.06375 1.27,3.1750001 3.677709,3.1750001 0.846666,0 1.666875,-0.238125 2.143125,-0.4762501 l 0.105833,-0.052917 z m -6.588125,1.27 V 0.50270674 H 71.737363 L 68.721113,5.3710402 65.731321,0.50270674 H 64.672988 V 6.5616652 h 0.926041 V 2.1431234 2.0637484 l 2.778125,4.4979168 h 0.687917 l 2.725208,-4.4714584 0.05292,-0.052917 V 6.5616652 Z M 54.618821,1.6933318 c -0.820209,0 -1.508125,0.2116666 -2.037292,0.6085416 l -0.132292,-0.5291666 -0.714375,0.079375 v 5.8737501 h 0.978959 V 6.4029152 6.1118735 c 0.449791,0.3704167 1.084791,0.5556251 1.852083,0.5556251 1.772708,0 2.778125,-0.8731251 2.778125,-2.4870834 -0.02646,-1.6139584 -0.9525,-2.4870834 -2.725208,-2.4870834 z m 1.74625,2.5135417 c 0,1.0847917 -0.635,1.6139584 -1.957917,1.6139584 -0.978958,0 -1.481667,-0.3704167 -1.719792,-0.635 V 3.2014568 c 0.423334,-0.4233333 1.005417,-0.635 1.799167,-0.635 1.27,0.026458 1.878542,0.555625 1.878542,1.6404167 z m -5.87375,2.0902084 V 1.7727068 l -0.926042,0.052917 v 4.7360418 h 0.926042 z M 46.04632,1.6933318 c -0.740833,0 -1.455208,0.238125 -1.931458,0.6085416 l -0.105833,-0.555625 -0.740834,0.079375 v 4.7360418 h 0.926042 V 3.2014568 c 0.370417,-0.4233333 1.11125,-0.635 1.666875,-0.635 1.137709,0 1.640417,0.4233333 1.640417,1.2964584 v 2.6722917 h 0.926042 V 3.8629152 C 48.454029,2.4606235 47.607362,1.6933318 46.04632,1.6933318 Z m -6.244166,0 c -0.714375,0 -1.349375,0.2116666 -1.852084,0.5820833 V 1.9843734 0.15874839 l -0.926041,0.079375 V 6.5352069 H 37.95007 V 3.2014568 c 0.291042,-0.3175 0.926042,-0.635 1.666875,-0.635 1.11125,0 1.640417,0.4233333 1.640417,1.2964584 v 2.6722917 h 0.926042 V 3.8629152 c 0.02646,-1.4022917 -0.846667,-2.1695834 -2.38125,-2.1695834 z m -4.048125,3.7306251 c -0.370417,0.238125 -0.926042,0.3704166 -1.508125,0.3704166 -1.322917,0 -1.984376,-0.555625 -1.984376,-1.6404167 0,-1.0847917 0.635,-1.5875 1.984376,-1.5875 0.502708,0 1.031875,0.1058333 1.455208,0.2910417 l 0.185208,0.079375 0.07937,-0.8731251 -0.105833,-0.052917 C 35.33069,1.7991647 34.722149,1.666873 34.113607,1.666873 c -1.799167,0 -2.831042,0.8995834 -2.831042,2.4606251 0,1.5875 1.031875,2.4870834 2.804584,2.4870834 0.687916,0 1.375833,-0.1852083 1.852083,-0.47625 l 0.07937,-0.052917 -0.105833,-0.8466667 z M 22.366112,6.5616652 h 1.005416 V 1.4287484 h 2.645834 l -0.02646,-0.92604166 h -6.217708 l -0.05292,0.92604166 h 2.645834 z" />
  <g
     id="g10078"
     transform="matrix(0.26458334,0,0,0.26458334,0.141111,0.13229006)">
    <path
       id="path10070"
       d="m 31.5,34.8 v 0 0 0 0 18.9 c 0,1.2 1.4,1.8 2.3,0.9 l 24,-24.1 c 0.8,-0.8 0.8,-2 0,-2.8 L 48.1,18 Z"
       class="st1"
       style="fill:#cb2c30" />
    <path
       id="path10072"
       d="M 61.6,1.4 H 31.5 L 48.2,18.1 62.5,3.7 C 63.4,2.9 62.8,1.4 61.6,1.4 Z"
       class="st2"
       style="fill:#00a3e0" />
    <path
       id="path10074"
       d="M 31.5,34.8 V 1.4 H 1.3 c -1.2,0 -1.8,1.4 -0.9,2.3 z"
       class="st2"
       style="fill:#00a3e0" />
    <polygon
       id="polygon10076"
       points="31.5,1.4 31.5,34.8 48.1,18.1"
       class="st0"
       style="fill:#512d6d" />
  </g>
</svg>
